<svg width="227" height="62" viewBox="0 0 227 62" fill="none" xmlns="http://www.w3.org/2000/svg">
<path d="M48.4552 35.36C48.6552 37.84 49.0552 39.92 49.6552 41.6C50.2952 43.24 51.2752 44.72 52.5952 46.04L51.8152 47H38.6752L37.9552 44.96L39.3352 44.6C40.6152 44.2 41.4952 43.7 41.9752 43.1C42.4952 42.46 42.7552 41.52 42.7552 40.28L42.6352 38.06L40.8952 13.04L28.3552 42.68H25.1152L12.5752 13.04L11.2552 31.52C11.0152 34.32 10.8952 36.28 10.8952 37.4C10.8952 39.04 11.0552 40.44 11.3752 41.6C11.7352 42.72 12.2952 43.84 13.0552 44.96L13.7752 46.04L12.8752 47H1.59516L0.935156 44.96L2.31516 44.6C3.87516 44.12 4.93516 43.52 5.49516 42.8C6.09516 42.08 6.45516 40.82 6.57516 39.02L8.19516 15.26C8.23516 14.74 8.29516 14.02 8.37516 13.1C8.45516 12.18 8.49516 11.36 8.49516 10.64C8.49516 9.28 8.23516 8.3 7.71516 7.7C7.23516 7.1 6.33516 6.64 5.01516 6.32L3.63516 5.96L4.29516 3.92H15.2152L27.5752 34.1L40.2952 3.92H48.9352L49.8352 4.88L49.1152 5.96C48.3552 7.08 47.7952 8.22 47.4352 9.38C47.1152 10.5 46.9552 11.88 46.9552 13.52C46.9552 14.12 47.0552 15.92 47.2552 18.92L48.4552 35.36ZM84.6891 41.72C84.6891 42.96 85.2891 43.58 86.4891 43.58C87.4891 43.58 88.4891 43.22 89.4891 42.5L90.6291 44.06C89.5891 45.22 88.4691 46.14 87.2691 46.82C86.0691 47.5 84.9691 47.84 83.9691 47.84C82.3291 47.84 81.1491 47.34 80.4291 46.34C79.7091 45.34 79.3491 43.72 79.3491 41.48C77.7091 43.8 76.0291 45.44 74.3091 46.4C72.5891 47.36 70.7291 47.84 68.7291 47.84C66.8091 47.84 65.0291 47.3 63.3891 46.22C61.7491 45.1 60.4291 43.44 59.4291 41.24C58.4691 39.04 57.9891 36.38 57.9891 33.26C57.9891 29.82 58.6091 26.84 59.8491 24.32C61.1291 21.76 62.9291 19.8 65.2491 18.44C67.6091 17.08 70.3691 16.4 73.5291 16.4C75.6091 16.4 77.5091 16.66 79.2291 17.18V6.56C79.2291 6.08 79.1291 5.74 78.9291 5.54C78.7691 5.34 78.4691 5.24 78.0291 5.24H75.3891L74.8491 3.68C76.0091 2.64 77.3291 1.78 78.8091 1.1C80.3291 0.419997 81.6491 0.0799961 82.7691 0.0799961C83.3291 0.0799961 83.7891 0.259996 84.1491 0.619996C84.5091 0.979996 84.6891 1.44 84.6891 2V41.72ZM64.2891 32.12C64.2891 35.92 64.9291 38.72 66.2091 40.52C67.5291 42.32 69.1691 43.22 71.1291 43.22C72.7291 43.22 74.2291 42.78 75.6291 41.9C77.0291 40.98 78.2691 39.6 79.3491 37.76V21.56C77.5091 20.32 75.5491 19.7 73.4691 19.7C70.5491 19.7 68.2891 20.8 66.6891 23C65.0891 25.16 64.2891 28.2 64.2891 32.12ZM105.96 44.9C107.6 44.9 108.94 44.46 109.98 43.58C111.06 42.66 111.6 41.48 111.6 40.04C111.6 38.76 111.04 37.72 109.92 36.92C108.84 36.12 107.22 35.26 105.06 34.34C103.1 33.54 101.46 32.76 100.14 32C98.86 31.24 97.76 30.26 96.84 29.06C95.92 27.82 95.46 26.3 95.46 24.5C95.46 22.1 96.48 20.16 98.52 18.68C100.6 17.16 103.22 16.4 106.38 16.4C109.22 16.4 111.58 16.96 113.46 18.08C115.34 19.2 116.28 20.7 116.28 22.58C116.28 24.1 115.8 25.36 114.84 26.36C113.92 27.32 112.72 27.8 111.24 27.8C110.4 27.8 109.98 27.54 109.98 27.02C109.98 26.86 110.12 26.46 110.4 25.82C110.72 25.14 110.88 24.42 110.88 23.66C110.88 22.18 110.38 21.08 109.38 20.36C108.38 19.64 107.24 19.28 105.96 19.28C104.32 19.28 103.02 19.7 102.06 20.54C101.14 21.34 100.68 22.38 100.68 23.66C100.68 25.14 101.26 26.34 102.42 27.26C103.62 28.14 105.38 29.06 107.7 30.02C109.62 30.82 111.22 31.58 112.5 32.3C113.78 32.98 114.86 33.86 115.74 34.94C116.62 36.02 117.06 37.32 117.06 38.84C117.06 41.56 115.98 43.74 113.82 45.38C111.66 47.02 108.78 47.84 105.18 47.84C102.14 47.84 99.64 47.16 97.68 45.8C95.72 44.44 94.74 42.62 94.74 40.34C94.74 38.98 95.2 37.86 96.12 36.98C97.04 36.1 98.24 35.66 99.72 35.66C100.56 35.66 100.98 35.9 100.98 36.38C100.98 36.5 100.86 36.88 100.62 37.52C100.38 38.12 100.26 38.86 100.26 39.74C100.26 41.42 100.84 42.7 102 43.58C103.2 44.46 104.52 44.9 105.96 44.9Z" fill="#08090C"/>
<path d="M137.787 47L126.087 12.2C125.487 10.36 124.807 8.96 124.047 8C123.287 7.04 122.167 6 120.687 4.88L121.467 3.92H134.967L135.687 5.96L134.307 6.32C133.347 6.56 132.647 6.88 132.207 7.28C131.807 7.68 131.607 8.24 131.607 8.96C131.607 9.6 131.827 10.58 132.267 11.9L142.047 42.02L150.447 15.92C151.207 13.52 151.587 11.66 151.587 10.34C151.507 8.14 150.607 6.8 148.887 6.32L147.507 5.96L148.227 3.92H159.627L160.407 4.88L159.507 5.96C158.027 7.72 156.927 9.72 156.207 11.96L144.627 47H137.787ZM167.825 17.18C167.825 11.86 168.765 7.68 170.645 4.64C172.525 1.6 175.305 0.0799961 178.985 0.0799961C181.585 0.0799961 183.725 0.699996 185.405 1.94C187.085 3.18 187.925 4.78 187.925 6.74C187.925 8.46 187.365 9.88 186.245 11C185.165 12.08 183.765 12.62 182.045 12.62C181.285 12.62 180.905 12.4 180.905 11.96C180.905 11.84 181.045 11.56 181.325 11.12C181.605 10.68 181.845 10.14 182.045 9.5C182.245 8.86 182.345 8.04 182.345 7.04C182.345 5.76 181.985 4.74 181.265 3.98C180.545 3.18 179.565 2.78 178.325 2.78C176.565 2.78 175.265 3.66 174.425 5.42C173.625 7.14 173.225 9.54 173.225 12.62V17.18H181.625C181.625 18.02 181.505 18.78 181.265 19.46C181.025 20.14 180.685 20.64 180.245 20.96H173.225V47.78C173.225 51.94 172.305 55.22 170.465 57.62C168.665 60.06 165.985 61.28 162.425 61.28C160.265 61.28 158.485 60.72 157.085 59.6C155.685 58.52 154.985 57.04 154.985 55.16C154.985 53.64 155.545 52.36 156.665 51.32C157.785 50.28 159.185 49.76 160.865 49.76C161.625 49.76 162.005 49.98 162.005 50.42C162.005 50.54 161.845 50.8 161.525 51.2C161.205 51.64 160.925 52.12 160.685 52.64C160.445 53.2 160.325 53.9 160.325 54.74C160.325 55.98 160.645 56.94 161.285 57.62C161.885 58.34 162.665 58.7 163.625 58.7C164.825 58.7 165.825 58.16 166.625 57.08C167.425 56.04 167.825 54.48 167.825 52.4V20.96H162.545C162.545 19.88 162.625 19.18 162.785 18.86C162.945 18.54 163.345 18.3 163.985 18.14L167.825 17.18ZM193.924 25.34C194.604 22.66 195.644 20.5 197.044 18.86C198.484 17.22 200.044 16.4 201.724 16.4C203.404 16.4 204.784 16.96 205.864 18.08C206.984 19.16 207.544 20.64 207.544 22.52C207.544 24.04 206.984 25.32 205.864 26.36C204.744 27.4 203.344 27.92 201.664 27.92C200.904 27.92 200.524 27.7 200.524 27.26C200.524 27.14 200.684 26.84 201.004 26.36C201.364 25.88 201.644 25.38 201.844 24.86C202.084 24.34 202.204 23.76 202.204 23.12C202.204 22.4 202.004 21.84 201.604 21.44C201.244 21 200.784 20.78 200.224 20.78C199.264 20.78 198.264 21.36 197.224 22.52C196.224 23.64 195.364 25.48 194.644 28.04C193.924 30.56 193.564 33.76 193.564 37.64C193.564 39.44 193.704 40.9 193.984 42.02C194.264 43.1 194.764 44.14 195.484 45.14L196.204 46.1L195.484 47H184.984L184.324 45.14L185.584 44.84C186.584 44.6 187.244 44.18 187.564 43.58C187.924 42.94 188.104 41.86 188.104 40.34V23.48C188.104 23 188.004 22.66 187.804 22.46C187.644 22.26 187.344 22.16 186.904 22.16H184.264L183.724 20.6C184.884 19.56 186.204 18.7 187.684 18.02C189.204 17.34 190.524 17 191.644 17C192.204 17 192.664 17.18 193.024 17.54C193.384 17.9 193.564 18.36 193.564 18.92V25.34H193.924ZM226.716 17.18C226.716 18.02 226.596 18.78 226.356 19.46C226.116 20.14 225.776 20.64 225.336 20.96H218.916V40.28C218.916 41.52 219.096 42.4 219.456 42.92C219.816 43.44 220.396 43.7 221.196 43.7C222.396 43.7 223.756 43.06 225.276 41.78L226.416 43.34C225.376 44.7 224.136 45.8 222.696 46.64C221.256 47.44 219.896 47.84 218.616 47.84C216.976 47.84 215.696 47.34 214.776 46.34C213.896 45.3 213.456 43.88 213.456 42.08V20.96H208.176C208.176 19.88 208.256 19.18 208.416 18.86C208.576 18.54 208.976 18.3 209.616 18.14C211.736 17.58 213.236 16.68 214.116 15.44C215.036 14.16 215.696 12.52 216.096 10.52C216.216 9.88 216.416 9.48 216.696 9.32C217.016 9.16 217.756 9.08 218.916 9.08V17.18H226.716Z" fill="#F7D917"/>
</svg>
