<svg width="716" height="99" viewBox="0 0 716 99" fill="none" xmlns="http://www.w3.org/2000/svg">
<path d="M76.8514 57.376C77.1714 61.344 77.8114 64.672 78.7714 67.36C79.7954 69.984 81.3634 72.352 83.4754 74.464L82.2274 76H61.2034L60.0514 72.736L62.2594 72.16C64.3074 71.52 65.7154 70.72 66.4834 69.76C67.3154 68.736 67.7314 67.232 67.7314 65.248L67.5394 61.696L64.7554 21.664L44.6914 69.088H39.5074L19.4434 21.664L17.3314 51.232C16.9474 55.712 16.7554 58.848 16.7554 60.64C16.7554 63.264 17.0114 65.504 17.5234 67.36C18.0994 69.152 18.9954 70.944 20.2114 72.736L21.3634 74.464L19.9234 76H1.87536L0.819364 72.736L3.02736 72.16C5.52336 71.392 7.21936 70.432 8.11536 69.28C9.07536 68.128 9.65136 66.112 9.84336 63.232L12.4354 25.216C12.4994 24.384 12.5954 23.232 12.7234 21.76C12.8514 20.288 12.9154 18.976 12.9154 17.824C12.9154 15.648 12.4994 14.08 11.6674 13.12C10.8994 12.16 9.45936 11.424 7.34736 10.912L5.13936 10.336L6.19536 7.07199H23.6674L43.4434 55.36L63.7954 7.07199H77.6194L79.0594 8.608L77.9074 10.336C76.6914 12.128 75.7954 13.952 75.2194 15.808C74.7074 17.6 74.4514 19.808 74.4514 22.432C74.4514 23.392 74.6114 26.272 74.9314 31.072L76.8514 57.376ZM135.114 68.8C132.746 71.552 129.93 73.664 126.666 75.136C123.402 76.608 119.882 77.344 116.106 77.344C111.69 77.344 107.818 76.32 104.49 74.272C101.162 72.224 98.5696 69.344 96.7136 65.632C94.9216 61.92 94.0256 57.632 94.0256 52.768C94.0256 47.648 95.0496 43.168 97.0976 39.328C99.1456 35.424 102.026 32.416 105.738 30.304C109.514 28.128 113.898 27.04 118.89 27.04C122.41 27.04 125.386 27.712 127.818 29.056C130.314 30.336 132.17 32.064 133.386 34.24C134.602 36.352 135.21 38.656 135.21 41.152C135.21 43.84 134.474 46.432 133.002 48.928C131.594 51.424 129.514 53.472 126.762 55.072C124.01 56.608 120.714 57.376 116.874 57.376C114.826 57.376 112.554 56.992 110.058 56.224C107.562 55.456 106.314 54.336 106.314 52.864C106.314 52.352 106.442 51.872 106.698 51.424C107.018 50.976 107.37 50.752 107.754 50.752C107.946 50.752 108.586 50.976 109.674 51.424C110.762 51.808 112.17 52 113.898 52C117.738 52 120.714 50.912 122.826 48.736C125.002 46.56 126.09 44 126.09 41.056C126.09 38.56 125.29 36.416 123.69 34.624C122.09 32.768 119.85 31.84 116.97 31.84C112.874 31.84 109.674 33.664 107.37 37.312C105.066 40.896 103.914 46.048 103.914 52.768C103.914 58.464 105.13 62.944 107.562 66.208C109.994 69.408 113.514 71.008 118.122 71.008C123.754 71.008 128.426 69.184 132.138 65.536C132.394 65.28 132.682 65.152 133.002 65.152C133.514 65.152 134.058 65.472 134.634 66.112C135.21 66.688 135.498 67.296 135.498 67.936C135.498 68.256 135.37 68.544 135.114 68.8ZM162.022 60.64C162.022 63.648 162.246 66.048 162.694 67.84C163.142 69.632 163.942 71.36 165.094 73.024L166.246 74.56L165.094 76H148.294L147.238 73.024L149.254 72.544C150.854 72.16 151.91 71.488 152.422 70.528C152.998 69.504 153.286 67.776 153.286 65.344V38.368C153.286 37.6 153.126 37.056 152.806 36.736C152.55 36.416 152.07 36.256 151.366 36.256H147.142L146.278 33.76C148.134 32.096 150.246 30.72 152.614 29.632C155.046 28.544 157.158 28 158.95 28C159.846 28 160.582 28.288 161.158 28.864C161.734 29.44 162.022 30.176 162.022 31.072V41.344C163.686 37.184 166.182 33.76 169.51 31.072C172.838 28.384 176.326 27.04 179.974 27.04C184.454 27.04 187.718 28.416 189.766 31.168C191.814 33.92 192.838 38.304 192.838 44.32V67.552C192.838 69.728 193.798 70.816 195.718 70.816C197.19 70.816 198.79 70.144 200.518 68.8L202.342 71.296C200.678 73.152 198.886 74.624 196.966 75.712C195.046 76.8 193.254 77.344 191.59 77.344C188.966 77.344 187.078 76.544 185.926 74.944C184.774 73.344 184.198 70.752 184.198 67.168V44.32C184.198 37.792 181.446 34.528 175.942 34.528C173.19 34.528 170.758 35.616 168.646 37.792C166.598 39.968 164.966 43.04 163.75 47.008C162.598 50.976 162.022 55.52 162.022 60.64ZM253.179 67.552C253.179 69.536 254.139 70.528 256.059 70.528C257.659 70.528 259.259 69.952 260.859 68.8L262.683 71.296C261.019 73.152 259.227 74.624 257.307 75.712C255.387 76.8 253.627 77.344 252.027 77.344C249.403 77.344 247.515 76.544 246.363 74.944C245.211 73.344 244.635 70.752 244.635 67.168C242.011 70.88 239.323 73.504 236.571 75.04C233.819 76.576 230.843 77.344 227.643 77.344C224.571 77.344 221.723 76.48 219.099 74.752C216.475 72.96 214.363 70.304 212.763 66.784C211.227 63.264 210.459 59.008 210.459 54.016C210.459 48.512 211.451 43.744 213.435 39.712C215.483 35.616 218.363 32.48 222.075 30.304C225.851 28.128 230.267 27.04 235.323 27.04C238.651 27.04 241.691 27.456 244.443 28.288V11.296C244.443 10.528 244.283 9.984 243.963 9.664C243.707 9.344 243.227 9.184 242.523 9.184H238.299L237.435 6.68799C239.291 5.024 241.403 3.648 243.771 2.56C246.203 1.47199 248.315 0.927994 250.107 0.927994C251.003 0.927994 251.739 1.21599 252.315 1.79199C252.891 2.36799 253.179 3.10399 253.179 3.99999V67.552ZM220.539 52.192C220.539 58.272 221.563 62.752 223.611 65.632C225.723 68.512 228.347 69.952 231.483 69.952C234.043 69.952 236.443 69.248 238.683 67.84C240.923 66.368 242.907 64.16 244.635 61.216V35.296C241.691 33.312 238.555 32.32 235.227 32.32C230.555 32.32 226.939 34.08 224.379 37.6C221.819 41.056 220.539 45.92 220.539 52.192ZM311.405 68.8C309.037 71.552 306.221 73.664 302.957 75.136C299.693 76.608 296.173 77.344 292.397 77.344C287.981 77.344 284.109 76.32 280.781 74.272C277.453 72.224 274.861 69.344 273.005 65.632C271.213 61.92 270.317 57.632 270.317 52.768C270.317 47.648 271.341 43.168 273.389 39.328C275.437 35.424 278.317 32.416 282.029 30.304C285.805 28.128 290.189 27.04 295.181 27.04C298.701 27.04 301.677 27.712 304.109 29.056C306.605 30.336 308.461 32.064 309.677 34.24C310.893 36.352 311.501 38.656 311.501 41.152C311.501 43.84 310.765 46.432 309.293 48.928C307.885 51.424 305.805 53.472 303.053 55.072C300.301 56.608 297.005 57.376 293.165 57.376C291.117 57.376 288.845 56.992 286.349 56.224C283.853 55.456 282.605 54.336 282.605 52.864C282.605 52.352 282.733 51.872 282.989 51.424C283.309 50.976 283.661 50.752 284.045 50.752C284.237 50.752 284.877 50.976 285.965 51.424C287.053 51.808 288.461 52 290.189 52C294.029 52 297.005 50.912 299.117 48.736C301.293 46.56 302.381 44 302.381 41.056C302.381 38.56 301.581 36.416 299.981 34.624C298.381 32.768 296.141 31.84 293.261 31.84C289.165 31.84 285.965 33.664 283.661 37.312C281.357 40.896 280.205 46.048 280.205 52.768C280.205 58.464 281.421 62.944 283.853 66.208C286.285 69.408 289.805 71.008 294.413 71.008C300.045 71.008 304.717 69.184 308.429 65.536C308.685 65.28 308.973 65.152 309.293 65.152C309.805 65.152 310.349 65.472 310.925 66.112C311.501 66.688 311.789 67.296 311.789 67.936C311.789 68.256 311.661 68.544 311.405 68.8ZM341.865 72.64C344.489 72.64 346.633 71.936 348.297 70.528C350.025 69.056 350.889 67.168 350.889 64.864C350.889 62.816 349.993 61.152 348.201 59.872C346.473 58.592 343.881 57.216 340.425 55.744C337.289 54.464 334.665 53.216 332.553 52C330.505 50.784 328.745 49.216 327.273 47.296C325.801 45.312 325.065 42.88 325.065 40C325.065 36.16 326.697 33.056 329.961 30.688C333.289 28.256 337.481 27.04 342.537 27.04C347.081 27.04 350.857 27.936 353.865 29.728C356.873 31.52 358.377 33.92 358.377 36.928C358.377 39.36 357.609 41.376 356.073 42.976C354.601 44.512 352.681 45.28 350.313 45.28C348.969 45.28 348.297 44.864 348.297 44.032C348.297 43.776 348.521 43.136 348.969 42.112C349.481 41.024 349.737 39.872 349.737 38.656C349.737 36.288 348.937 34.528 347.337 33.376C345.737 32.224 343.913 31.648 341.865 31.648C339.241 31.648 337.161 32.32 335.625 33.664C334.153 34.944 333.417 36.608 333.417 38.656C333.417 41.024 334.345 42.944 336.201 44.416C338.121 45.824 340.937 47.296 344.649 48.832C347.721 50.112 350.281 51.328 352.329 52.48C354.377 53.568 356.105 54.976 357.513 56.704C358.921 58.432 359.625 60.512 359.625 62.944C359.625 67.296 357.897 70.784 354.441 73.408C350.985 76.032 346.377 77.344 340.617 77.344C335.753 77.344 331.753 76.256 328.617 74.08C325.481 71.904 323.913 68.992 323.913 65.344C323.913 63.168 324.649 61.376 326.121 59.968C327.593 58.56 329.513 57.856 331.881 57.856C333.225 57.856 333.897 58.24 333.897 59.008C333.897 59.2 333.705 59.808 333.321 60.832C332.937 61.792 332.745 62.976 332.745 64.384C332.745 67.072 333.673 69.12 335.529 70.528C337.449 71.936 339.561 72.64 341.865 72.64Z" fill="#252525"/>
<path d="M394.708 76L375.988 20.32C375.028 17.376 373.94 15.136 372.724 13.6C371.508 12.064 369.716 10.4 367.348 8.608L368.596 7.07199H390.196L391.348 10.336L389.14 10.912C387.604 11.296 386.484 11.808 385.78 12.448C385.14 13.088 384.82 13.984 384.82 15.136C384.82 16.16 385.172 17.728 385.876 19.84L401.524 68.032L414.964 26.272C416.18 22.432 416.788 19.456 416.788 17.344C416.66 13.824 415.22 11.68 412.468 10.912L410.26 10.336L411.412 7.07199H429.652L430.9 8.608L429.46 10.336C427.092 13.152 425.332 16.352 424.18 19.936L405.652 76H394.708ZM443.058 12.832C443.058 11.616 443.73 10.272 445.074 8.8C446.482 7.264 447.762 6.496 448.914 6.496C450.13 6.496 451.442 7.232 452.85 8.704C454.258 10.176 454.962 11.552 454.962 12.832C454.962 14.048 454.258 15.392 452.85 16.864C451.442 18.336 450.13 19.072 448.914 19.072C447.826 19.072 446.578 18.336 445.17 16.864C443.762 15.392 443.058 14.048 443.058 12.832ZM453.234 67.552C453.234 69.728 454.194 70.816 456.114 70.816C457.714 70.816 459.314 70.144 460.914 68.8L462.738 71.296C461.074 73.152 459.282 74.624 457.362 75.712C455.442 76.8 453.65 77.344 451.986 77.344C449.362 77.344 447.474 76.544 446.322 74.944C445.17 73.344 444.594 70.752 444.594 67.168V37.408C444.594 36.64 444.434 36.096 444.114 35.776C443.858 35.456 443.378 35.296 442.674 35.296H438.45L437.586 32.8C439.442 31.136 441.554 29.76 443.922 28.672C446.29 27.584 448.402 27.04 450.258 27.04C451.154 27.04 451.89 27.328 452.466 27.904C453.042 28.48 453.33 29.216 453.33 30.112L453.234 67.552ZM484.1 67.552C484.1 69.728 485.06 70.816 486.98 70.816C488.58 70.816 490.18 70.144 491.78 68.8L493.604 71.296C491.94 73.152 490.148 74.624 488.228 75.712C486.308 76.8 484.516 77.344 482.852 77.344C480.228 77.344 478.34 76.544 477.188 74.944C476.036 73.344 475.46 70.752 475.46 67.168V11.296C475.46 10.528 475.3 9.984 474.98 9.664C474.724 9.344 474.244 9.184 473.54 9.184H469.316L468.452 6.68799C470.308 5.024 472.42 3.648 474.788 2.56C477.156 1.47199 479.268 0.927994 481.124 0.927994C482.02 0.927994 482.756 1.21599 483.332 1.79199C483.908 2.36799 484.196 3.10399 484.196 3.99999L484.1 67.552ZM542.349 68.8C539.981 71.552 537.165 73.664 533.901 75.136C530.637 76.608 527.117 77.344 523.341 77.344C518.925 77.344 515.053 76.32 511.725 74.272C508.397 72.224 505.805 69.344 503.949 65.632C502.157 61.92 501.261 57.632 501.261 52.768C501.261 47.648 502.285 43.168 504.333 39.328C506.381 35.424 509.261 32.416 512.973 30.304C516.749 28.128 521.133 27.04 526.125 27.04C529.645 27.04 532.621 27.712 535.053 29.056C537.549 30.336 539.405 32.064 540.621 34.24C541.837 36.352 542.445 38.656 542.445 41.152C542.445 43.84 541.709 46.432 540.237 48.928C538.829 51.424 536.749 53.472 533.997 55.072C531.245 56.608 527.949 57.376 524.109 57.376C522.061 57.376 519.789 56.992 517.293 56.224C514.797 55.456 513.549 54.336 513.549 52.864C513.549 52.352 513.677 51.872 513.933 51.424C514.253 50.976 514.605 50.752 514.989 50.752C515.181 50.752 515.821 50.976 516.909 51.424C517.997 51.808 519.405 52 521.133 52C524.973 52 527.949 50.912 530.061 48.736C532.237 46.56 533.325 44 533.325 41.056C533.325 38.56 532.525 36.416 530.925 34.624C529.325 32.768 527.085 31.84 524.205 31.84C520.109 31.84 516.909 33.664 514.605 37.312C512.301 40.896 511.149 46.048 511.149 52.768C511.149 58.464 512.365 62.944 514.797 66.208C517.229 69.408 520.749 71.008 525.357 71.008C530.989 71.008 535.661 69.184 539.373 65.536C539.629 65.28 539.917 65.152 540.237 65.152C540.749 65.152 541.293 65.472 541.869 66.112C542.445 66.688 542.733 67.296 542.733 67.936C542.733 68.256 542.605 68.544 542.349 68.8ZM560.137 28.288C560.137 19.776 561.641 13.088 564.649 8.224C567.657 3.35999 572.105 0.927994 577.993 0.927994C582.153 0.927994 585.577 1.91999 588.265 3.904C590.953 5.888 592.297 8.448 592.297 11.584C592.297 14.336 591.401 16.608 589.609 18.4C587.881 20.128 585.641 20.992 582.889 20.992C581.673 20.992 581.065 20.64 581.065 19.936C581.065 19.744 581.289 19.296 581.737 18.592C582.185 17.888 582.569 17.024 582.889 16C583.209 14.976 583.369 13.664 583.369 12.064C583.369 10.016 582.793 8.384 581.641 7.168C580.489 5.888 578.921 5.248 576.937 5.248C574.121 5.248 572.041 6.656 570.697 9.472C569.417 12.224 568.777 16.064 568.777 20.992V28.288H582.217C582.217 29.632 582.025 30.848 581.641 31.936C581.257 33.024 580.713 33.824 580.009 34.336H568.777V77.248C568.777 83.904 567.305 89.152 564.361 92.992C561.481 96.896 557.193 98.848 551.497 98.848C548.041 98.848 545.193 97.952 542.953 96.16C540.713 94.432 539.593 92.064 539.593 89.056C539.593 86.624 540.489 84.576 542.281 82.912C544.073 81.248 546.313 80.416 549.001 80.416C550.217 80.416 550.825 80.768 550.825 81.472C550.825 81.664 550.569 82.08 550.057 82.72C549.545 83.424 549.097 84.192 548.713 85.024C548.329 85.92 548.137 87.04 548.137 88.384C548.137 90.368 548.649 91.904 549.673 92.992C550.633 94.144 551.881 94.72 553.417 94.72C555.337 94.72 556.937 93.856 558.217 92.128C559.497 90.464 560.137 87.968 560.137 84.64V34.336H551.689C551.689 32.608 551.817 31.488 552.073 30.976C552.329 30.464 552.969 30.08 553.993 29.824L560.137 28.288ZM587.976 52.192C587.976 47.072 588.904 42.624 590.76 38.848C592.68 35.072 595.4 32.16 598.92 30.112C602.504 28.064 606.664 27.04 611.4 27.04C616.136 27.04 620.264 28.064 623.784 30.112C627.304 32.16 630.024 35.072 631.944 38.848C633.864 42.624 634.824 47.072 634.824 52.192C634.824 57.248 633.864 61.696 631.944 65.536C630.024 69.312 627.304 72.224 623.784 74.272C620.264 76.32 616.136 77.344 611.4 77.344C606.664 77.344 602.504 76.32 598.92 74.272C595.4 72.224 592.68 69.312 590.76 65.536C588.904 61.696 587.976 57.248 587.976 52.192ZM624.744 52.48C624.744 49.472 624.328 46.4 623.496 43.264C622.664 40.128 621.256 37.472 619.272 35.296C617.352 33.12 614.824 32.032 611.688 32.032C609 32.032 606.6 32.896 604.488 34.624C602.44 36.288 600.84 38.656 599.688 41.728C598.536 44.8 597.96 48.32 597.96 52.288C597.96 58.368 599.144 63.2 601.512 66.784C603.88 70.368 607.08 72.16 611.112 72.16C613.736 72.16 616.072 71.36 618.12 69.76C620.232 68.096 621.864 65.792 623.016 62.848C624.168 59.84 624.744 56.384 624.744 52.48ZM661.236 41.344C662.324 37.056 663.988 33.6 666.228 30.976C668.532 28.352 671.028 27.04 673.716 27.04C676.404 27.04 678.612 27.936 680.34 29.728C682.132 31.456 683.028 33.824 683.028 36.832C683.028 39.264 682.132 41.312 680.34 42.976C678.548 44.64 676.308 45.472 673.62 45.472C672.404 45.472 671.796 45.12 671.796 44.416C671.796 44.224 672.052 43.744 672.564 42.976C673.14 42.208 673.588 41.408 673.908 40.576C674.292 39.744 674.484 38.816 674.484 37.792C674.484 36.64 674.164 35.744 673.524 35.104C672.948 34.4 672.212 34.048 671.316 34.048C669.78 34.048 668.18 34.976 666.516 36.832C664.916 38.624 663.54 41.568 662.388 45.664C661.236 49.696 660.66 54.816 660.66 61.024C660.66 63.904 660.884 66.24 661.332 68.032C661.78 69.76 662.58 71.424 663.732 73.024L664.884 74.56L663.732 76H646.932L645.876 73.024L647.892 72.544C649.492 72.16 650.548 71.488 651.06 70.528C651.636 69.504 651.924 67.776 651.924 65.344V38.368C651.924 37.6 651.764 37.056 651.444 36.736C651.188 36.416 650.708 36.256 650.004 36.256H645.78L644.916 33.76C646.772 32.096 648.884 30.72 651.252 29.632C653.684 28.544 655.796 28 657.588 28C658.484 28 659.22 28.288 659.796 28.864C660.372 29.44 660.66 30.176 660.66 31.072V41.344H661.236ZM715.622 28.288C715.622 29.632 715.43 30.848 715.046 31.936C714.662 33.024 714.118 33.824 713.414 34.336H703.142V65.248C703.142 67.232 703.43 68.64 704.006 69.472C704.582 70.304 705.51 70.72 706.79 70.72C708.71 70.72 710.886 69.696 713.318 67.648L715.142 70.144C713.478 72.32 711.494 74.08 709.19 75.424C706.886 76.704 704.71 77.344 702.662 77.344C700.038 77.344 697.99 76.544 696.518 74.944C695.11 73.28 694.406 71.008 694.406 68.128V34.336H685.958C685.958 32.608 686.086 31.488 686.342 30.976C686.598 30.464 687.238 30.08 688.262 29.824C691.654 28.928 694.054 27.488 695.462 25.504C696.934 23.456 697.99 20.832 698.63 17.632C698.822 16.608 699.142 15.968 699.59 15.712C700.102 15.456 701.286 15.328 703.142 15.328V28.288H715.622Z" fill="#EEAD2D"/>
</svg>
